<svg width="38" height="38" viewBox="0 0 38 38" fill="none" xmlns="http://www.w3.org/2000/svg">
<circle cx="19" cy="19" r="19" fill="white"/>
<path d="M18.1857 7.60001H19.8143V11.6714H18.1857V7.60001ZM23.6316 13.2186L26.4865 10.3637L27.6379 11.5151L24.783 14.37L23.6316 13.2186ZM26.3285 18.1857H30.4V19.8143H26.3285V18.1857ZM23.6316 24.7814L24.783 23.6308L27.6379 26.4857L26.4865 27.6371L23.6316 24.7814ZM18.1857 26.3286H19.8143V30.4H18.1857V26.3286ZM10.3637 26.4849L13.2185 23.63L14.3699 24.7814L11.5159 27.6363L10.3637 26.4849ZM7.59998 18.1857H11.6714V19.8143H7.59998V18.1857ZM10.3645 11.5151L11.5159 10.3637L14.3708 13.2186L13.2185 14.37L10.3645 11.5151ZM19 14.1143C18.0337 14.1143 17.0891 14.4008 16.2856 14.9377C15.4822 15.4745 14.856 16.2376 14.4862 17.1303C14.1164 18.0231 14.0196 19.0054 14.2081 19.9532C14.3967 20.9009 14.862 21.7714 15.5453 22.4547C16.2285 23.138 17.0991 23.6033 18.0468 23.7918C18.9946 23.9804 19.9769 23.8836 20.8697 23.5138C21.7624 23.144 22.5254 22.5178 23.0623 21.7144C23.5991 20.9109 23.8857 19.9663 23.8857 19C23.8857 17.7042 23.3709 16.4615 22.4547 15.5453C21.5384 14.629 20.2957 14.1143 19 14.1143Z" fill="black"/>
</svg>
