<svg width="1541" height="190" viewBox="0 0 1541 190" fill="none" xmlns="http://www.w3.org/2000/svg">
<g clip-path="url(#clip0_602_32)">
<path d="M915.361 131.329C916.79 132.793 916.79 134.813 916.756 135.441C916.721 138.768 916.721 142.095 916.721 145.422C916.721 149.342 916.721 153.279 916.651 157.198C916.616 159.097 915.692 161.257 914.298 162.703C906.209 170.943 898.713 178.468 891.287 185.732C889.858 187.161 887.574 188.084 885.517 188.101C875.947 188.171 866.342 188.171 856.772 188.171H839.339C830.536 188.136 821.716 188.136 812.912 188.206H812.79C809.618 188.206 807.212 187.23 805.051 185C801.303 181.098 797.485 177.266 793.65 173.434C790.129 169.88 786.59 166.344 783.103 162.755C781.517 161.135 780.471 158.696 780.471 156.588C780.349 132.357 780.349 107.795 780.471 83.5638C780.471 81.4037 781.482 78.9997 783.069 77.3623C790.163 70.1155 797.712 62.5727 806.079 54.333C807.474 52.9394 809.653 52.051 811.657 52.051C836.847 51.9639 861.792 51.9639 885.744 52.051C887.679 52.051 889.858 52.9742 891.287 54.4027C898.992 61.963 906.715 69.7323 914.298 77.4494C915.692 78.8778 916.616 81.0205 916.651 82.9367C916.738 87.2046 916.721 91.4899 916.721 95.7578C916.721 98.7366 916.721 101.715 916.756 104.694C916.756 105.966 916.634 107.603 915.326 108.875C913.932 110.269 912.066 110.269 911.421 110.269C904.257 110.182 897.092 110.199 889.962 110.269C889.335 110.269 887.4 110.303 885.97 108.84C884.663 107.534 884.541 105.896 884.541 104.747C884.576 101.454 884.576 98.1617 884.576 94.8694C884.576 91.3157 884.576 87.8143 884.611 84.2954C860.659 84.3303 836.725 84.3303 812.808 84.2954C812.878 108.039 812.878 132.113 812.808 155.857C836.725 155.787 860.659 155.787 884.611 155.857C884.576 152.652 884.576 149.499 884.576 146.293C884.576 142.74 884.576 139.203 884.541 135.65C884.506 134.448 884.628 132.636 886.005 131.312C887.47 129.831 889.527 129.884 890.189 129.884C896.499 129.953 903.333 129.953 911.16 129.884C912.206 129.884 914.019 130.006 915.344 131.312L915.361 131.329Z" fill="black"/>
<path d="M136.337 171.709V183.555C136.337 183.938 136.302 184.321 136.249 184.722L135.936 188.084H104.209V84.3477H32.4586V181.813C32.4586 186.76 31.0292 188.171 26.1133 188.171H6.51962C1.39457 188.171 0 186.777 0 181.708V58.688C0 53.4272 1.42943 51.9987 6.55448 51.9987H24.0389C50.9192 51.9987 77.7299 51.9987 104.558 51.9639H104.593C107.382 51.9639 109.543 52.8523 111.496 54.873C115.139 58.5835 118.817 62.2591 122.461 65.9173C126.261 69.7497 130.096 73.5473 133.861 77.4145C135.291 78.8952 136.232 81.0553 136.232 82.9541C136.302 112.533 136.302 142.112 136.302 171.692L136.337 171.709Z" fill="black"/>
<path d="M448.564 156.623C448.564 159.149 447.744 161.152 445.966 162.929C442.671 166.187 439.412 169.444 436.117 172.754C431.811 177.092 427.505 181.429 423.13 185.715C421.648 187.178 419.365 188.084 417.36 188.119C405.192 188.153 392.711 188.188 380.038 188.188C368.027 188.188 355.825 188.153 343.5 188.119C341.478 188.119 339.282 187.23 337.887 185.871C329.589 177.701 322.006 170.106 314.72 162.651C313.255 161.135 312.279 158.731 312.279 156.641C312.209 139.099 312.209 121.557 312.192 104.015C312.192 88.5982 312.192 73.1989 312.157 57.7822C312.157 56.5453 312.314 54.7337 313.674 53.4097C315.19 51.929 317.282 51.9465 318.206 51.9465C324.255 52.0684 331.332 52.1729 338.323 51.9465C339.648 51.8768 341.583 52.0161 343.012 53.4097C344.633 54.9601 344.633 57.155 344.633 58.357C344.563 81.3863 344.563 104.433 344.563 127.462L344.598 148.209C344.598 150.77 344.633 153.331 344.563 155.909C368.48 155.839 392.45 155.839 416.366 155.909C416.297 148.854 416.332 141.747 416.332 134.657V52.1207H448.267L448.459 55.9531C448.494 56.5802 448.529 57.155 448.529 57.7647V81.4908C448.529 106.541 448.529 131.591 448.564 156.641V156.623Z" fill="black"/>
<path d="M1228.91 122.393V109.258C1228.91 108.753 1228.88 108.283 1228.84 107.743L1228.65 104.032H1206.79L1226.59 83.947L1227.55 83.8599L1228.25 81.9611C1228.69 80.794 1228.34 79.6791 1227.78 78.8604L1225.97 75.6028L1225.3 76.2648L1225.15 76.108C1217.74 68.6697 1210.31 61.1965 1202.83 53.7756C1201.53 52.5039 1199.61 52.0336 1198.23 52.0336C1173.29 51.9639 1148.36 51.9639 1123.45 52.0336C1121.67 52.0336 1119.7 52.8523 1118.48 54.0891C1109.96 62.5204 1102.22 70.2375 1094.84 77.7803C1093.53 79.1042 1092.66 81.1946 1092.63 83.1283C1092.56 87.0478 1092.56 90.9498 1092.56 94.8693C1092.59 98.092 1092.59 101.367 1092.52 104.625C1092.52 105.792 1092.65 107.499 1093.99 108.805C1095.45 110.286 1097.44 110.269 1098.1 110.269C1105.74 110.182 1112.64 110.182 1119.26 110.269C1119.96 110.269 1121.98 110.303 1123.52 108.805C1124.84 107.447 1125 105.67 1124.98 104.468C1124.95 101.053 1124.95 97.6217 1124.95 94.2074C1124.95 90.7931 1124.98 87.5878 1124.95 84.2954C1148.86 84.3302 1172.83 84.3302 1196.75 84.2954C1196.68 88.8943 1196.72 93.4757 1196.72 98.0746V103.928H1190.95C1177.3 103.928 1163.66 103.928 1150 104.05C1147.91 104.05 1145.5 105.025 1144 106.488C1138 112.307 1132.11 118.23 1126.22 124.152L1121.65 128.751C1121.27 129.135 1120.92 129.535 1120.52 129.988L1116.37 134.674L1116.53 134.709L1092.07 159.41L1094.55 162.041C1094.96 162.546 1095.52 163.173 1096.17 163.783L1102.95 170.594C1107.92 175.594 1112.9 180.576 1117.84 185.575C1119.61 187.387 1121.6 188.206 1124.15 188.206H1124.18C1148.62 188.136 1173.08 188.136 1197.52 188.206C1200.03 188.206 1202.01 187.352 1203.79 185.506C1211.31 177.945 1218.82 170.402 1226.38 162.894C1228.16 161.152 1228.98 159.149 1228.95 156.588C1228.91 145.196 1228.91 133.786 1228.91 122.393ZM1124.91 155.874C1125 150.962 1124.98 146.049 1124.95 141.154V136.242L1128.5 136.207C1143.08 136.207 1157.63 136.207 1172.21 136.12C1174.37 136.12 1176.42 134.848 1177.52 133.768C1180.73 130.667 1183.87 127.497 1187.02 124.292C1189.05 122.271 1191.05 120.233 1193.07 118.247C1194.27 117.045 1195.48 115.878 1196.72 114.693V121.121C1196.72 132.706 1196.72 144.272 1196.79 155.857C1172.83 155.787 1148.86 155.787 1124.91 155.857V155.874Z" fill="black"/>
<path d="M604.598 52.3471V59.8203C604.598 66.527 604.599 73.1292 604.529 79.7139C604.494 82.4315 601.583 83.8251 601.234 83.9818C600.537 84.2954 599.805 84.3999 599.229 84.3999C598.881 84.3999 598.602 84.3651 598.34 84.3302H500.633C500.598 117.115 500.598 149.847 500.633 182.631C500.633 183.798 500.476 185.506 499.169 186.812C497.705 188.241 495.752 188.206 495.055 188.206C487.35 188.119 480.517 188.119 474.136 188.206H473.875C472.637 188.206 470.964 188.014 469.656 186.742C468.297 185.419 468.14 183.572 468.14 182.318C468.209 166.169 468.21 150.056 468.21 133.925V106.053C468.21 90.0614 468.209 74.0699 468.14 58.1131C468.14 56.6499 468.297 54.8208 469.726 53.4272C471.121 52.0684 472.951 51.9465 474.381 51.9465C480.307 52.0684 486.705 52.0684 495.038 51.9813C495.735 51.9813 497.705 51.9116 499.152 53.3749C500.476 54.6466 500.616 56.3537 500.616 57.5209V73.5473C507.048 67.0844 513.446 60.6565 519.983 54.2633C521.308 52.9394 523.347 52.0858 525.125 52.051C546.776 52.0161 568.375 52.0161 590.025 52.0161H599.665C600.049 52.0161 600.432 52.051 600.938 52.0858L604.581 52.3645L604.598 52.3471Z" fill="black"/>
<path d="M1072.84 52.4342V77.9197C1072.84 80.0101 1072.84 81.6824 1071.45 83.0237C1070.12 84.3302 1068.54 84.3302 1066.32 84.3302H977.367C974.665 84.3302 972.015 84.3302 969.313 84.2954H968.93C968.895 117.08 968.895 149.847 968.93 182.649C968.93 183.781 968.773 185.506 967.466 186.795C966.001 188.223 964.014 188.153 963.352 188.188C955.246 188.101 948.587 188.101 942.433 188.188H942.172C940.934 188.188 939.26 187.997 937.953 186.725C936.628 185.401 936.436 183.659 936.436 182.266C936.506 166.013 936.506 149.777 936.506 133.524V58.3222C936.506 53.4097 937.936 51.9813 942.869 51.9813H948.796C953.642 51.9813 958.488 52.0161 963.334 51.9465C963.997 51.9116 966.001 51.8768 967.448 53.3401C968.756 54.6117 968.913 56.3189 968.913 57.486V73.4776L969.61 72.7808C975.781 66.5793 981.969 60.3952 988.21 54.2633C989.57 52.9046 991.609 52.051 993.352 52.051C1015.86 51.9813 1038.34 51.9813 1060.88 51.9813H1068.1C1068.48 51.9813 1068.83 52.0161 1069.34 52.0684L1072.83 52.4168L1072.84 52.4342Z" fill="black"/>
<path d="M1437 84.0689V155.857H1540.97V188.153H1517.45C1490.41 188.153 1463.39 188.153 1436.35 188.188H1436.32C1433.72 188.188 1431.67 187.335 1429.82 185.471C1426.65 182.213 1423.42 178.973 1420.18 175.75C1415.87 171.413 1411.57 167.075 1407.31 162.703C1405.85 161.222 1404.91 158.87 1404.91 156.71C1404.79 140.91 1404.79 124.971 1404.91 109.328C1404.91 107.238 1405.92 104.834 1407.38 103.335C1413.38 97.2907 1419.43 91.2982 1425.7 85.1316L1426.87 83.9993H1405.03V0.54002L1408.32 0.15678C1408.83 0.0871 1409.28 0.03484 1409.75 0.03484H1417.81C1422.43 0.03484 1427.1 0.03484 1431.72 0C1432.42 0 1434.32 0 1435.68 1.35876C1436.56 2.24718 1437 3.484 1437 4.99954C1436.97 23.2383 1436.97 41.4422 1436.93 59.6635V73.6692C1443.36 67.2412 1449.83 60.7784 1456.3 54.3853C1457.43 53.2704 1459.37 52.0684 1461.37 52.0684C1484.85 51.9813 1508.3 51.9987 1531.78 51.9987H1536.62C1536.94 51.9987 1537.29 52.0336 1537.74 52.0858L1540.97 52.4691V84.0689H1436.97H1437Z" fill="black"/>
<path d="M1333.24 32.2096V51.9116H1384.84V84.2432H1373.49C1368.42 84.2083 1363.35 84.2083 1358.31 84.278C1355.64 84.3128 1353.74 83.4941 1351.95 81.6824C1346.3 75.9512 1340.6 70.2549 1334.9 64.576L1333.12 62.7991V188.014H1300.84V62.5727C1294.41 69.0355 1288.01 75.4983 1281.58 81.9263C1280.6 82.8844 1279.1 84.1386 1277.2 84.1735C1272.32 84.2431 1267.47 84.2432 1262.56 84.2432H1248.89V52.0684H1321.84L1299.09 29.3701L1306.31 22.1582C1313.32 15.1902 1320.1 8.4487 1326.88 1.72458C1328.43 0.209038 1330.65 0.0696781 1331.29 0.0522581C1347.61 0.0174181 1363.91 0.0522581 1380.22 0.0522581C1380.69 0.0522581 1381.15 0.121938 1381.69 0.174198L1384.91 0.592278V32.227H1333.26L1333.24 32.2096Z" fill="black"/>
<path d="M288.85 130.284C288.537 130.197 287.839 129.936 286.985 129.936H278.426C274.05 129.936 269.675 129.936 265.3 129.901C263.748 129.831 262.545 130.336 261.621 131.26C260.262 132.653 260.262 134.517 260.262 135.249C260.297 139.865 260.297 144.499 260.297 149.15V155.839H241.853C224.073 155.839 206.274 155.839 188.494 155.874C188.581 150.91 188.563 145.962 188.528 140.998V136.695C188.528 136.503 188.528 136.277 188.494 136.085L203.677 136.12C214.293 136.12 224.944 136.155 235.595 136.12C237.46 136.12 239.552 135.232 240.947 133.873C247.466 127.445 253.916 120.947 260.366 114.484L263.765 111.07C264.114 110.722 264.393 110.338 264.777 109.903L265.666 108.771L290.227 83.8425L291.151 83.7206L291.779 81.8566C292.284 80.3933 291.622 79.2262 291.151 78.5991L289.321 75.777L288.85 76.2474L287.177 74.5751C280.309 67.6419 273.423 60.7436 266.485 53.8975C264.777 52.1903 262.179 52.0684 261.412 52.0684C245.34 51.9987 229.302 51.9987 213.247 52.1032C211.382 52.1032 209.255 52.9568 207.896 54.3156C201.655 60.4648 195.449 66.6664 189.226 72.8679L185.704 76.3867C185.286 76.8222 184.92 77.2751 184.397 77.85L182.776 79.6617C182.34 79.9404 181.922 80.2017 181.503 80.6198L178.488 83.5986C171.672 90.375 164.856 97.1165 158.144 103.928C156.366 105.739 156.209 108.387 156.174 109.189C156.105 114.188 156.105 119.223 156.14 124.222V136.224H160.515L169.667 136.19C172.526 136.155 175.402 136.155 178.261 136.155L157.604 157.059L155.93 158.992L157.29 161.152C157.412 161.379 157.726 161.849 158.179 162.285L161.352 165.49C168.29 172.458 175.228 179.426 182.201 186.324C183.595 187.683 185.6 188.153 187.012 188.153C195.031 188.188 203.015 188.223 211.033 188.223C219.052 188.223 227.472 188.188 235.682 188.153C237.46 188.153 239.43 187.37 240.651 186.133C247.815 179.078 254.91 171.918 261.97 164.793L263.8 162.964C264.271 162.494 264.567 161.989 264.881 161.501L265.23 160.961L265.265 160.891L290.227 135.597L294.481 131.538L288.833 130.336L288.85 130.284ZM188.546 84.2606C188.86 84.2954 189.156 84.2954 189.47 84.2954L201.289 84.3302C220.97 84.3302 240.65 84.3302 260.331 84.2606C260.244 89.173 260.244 94.0855 260.262 98.9805L260.297 103.945H252.94C239.849 103.91 226.74 103.91 213.613 104.032C211.487 104.032 208.994 105.077 207.442 106.593C202.091 111.784 196.826 117.08 191.527 122.358L188.546 125.407V84.2432V84.2606Z" fill="black"/>
<path d="M707.047 100.601H675.809V137.653H707.047V100.601Z" fill="black"/>
<path d="M761.278 128.699C760.006 122.341 760.006 115.808 761.278 109.485L761.4 108.858C763.876 96.3849 758.576 83.6857 748.03 76.6132L747.49 76.2299C742.103 72.6588 737.484 68.0251 733.892 62.6423L733.509 62.1023C726.449 51.5632 713.741 46.2675 701.242 48.7412L700.615 48.8631C694.269 50.1348 687.75 50.1348 681.387 48.8631L680.759 48.7412C668.313 46.2675 655.57 51.5632 648.493 62.1023L648.144 62.6423C644.535 68.0251 639.898 72.6414 634.547 76.2299L634.006 76.6132C623.425 83.6683 618.161 96.3675 620.636 108.858L620.758 109.485C622.031 115.826 622.031 122.341 620.758 128.699L620.636 129.326C618.161 141.764 623.425 154.498 634.006 161.571L634.547 161.919C639.898 165.525 644.535 170.159 648.144 175.507L648.493 176.047C655.553 186.621 668.295 191.881 680.759 189.408L681.387 189.286C687.75 188.014 694.287 188.014 700.615 189.286L701.242 189.408C713.724 191.881 726.432 186.621 733.509 176.047L733.892 175.507C737.466 170.159 742.103 165.525 747.49 161.919L748.03 161.571C758.576 154.515 763.876 141.781 761.4 129.326L761.278 128.699ZM722.021 152.791H660.678V85.9155H722.021V152.791Z" fill="black"/>
<path d="M707.047 100.601H675.809V137.653H707.047V100.601Z" fill="white"/>
<path d="M707.238 101H676V138.052H707.238V101Z" fill="#FF3600"/>
</g>
<defs>
<clipPath id="clip0_602_32">
<rect width="1541" height="190" fill="white"/>
</clipPath>
</defs>
</svg>
