<svg width="357" height="44" viewBox="0 0 357 44" fill="none" xmlns="http://www.w3.org/2000/svg">
<g clip-path="url(#clip0_602_69)">
<path d="M212.06 30.4131C212.391 30.752 212.391 31.22 212.383 31.3652C212.375 32.1357 212.375 32.9062 212.375 33.6767C212.375 34.5844 212.375 35.4961 212.358 36.4038C212.35 36.8435 212.136 37.3437 211.813 37.6786C209.939 39.5867 208.203 41.3294 206.483 43.0117C206.151 43.3424 205.622 43.5563 205.146 43.5603C202.929 43.5764 200.703 43.5764 198.486 43.5764H194.448C192.408 43.5684 190.365 43.5684 188.326 43.5845H188.297C187.562 43.5845 187.005 43.3586 186.504 42.8422C185.636 41.9386 184.752 41.0511 183.863 40.1636C183.047 39.3406 182.228 38.5217 181.42 37.6907C181.052 37.3155 180.81 36.7507 180.81 36.2626C180.782 30.6511 180.782 24.9631 180.81 19.3516C180.81 18.8514 181.044 18.2947 181.412 17.9155C183.055 16.2373 184.804 14.4905 186.743 12.5824C187.066 12.2597 187.57 12.0539 188.035 12.0539C193.87 12.0337 199.649 12.0337 205.198 12.0539C205.647 12.0539 206.151 12.2677 206.483 12.5985C208.268 14.3493 210.057 16.1485 211.813 17.9356C212.136 18.2664 212.35 18.7626 212.358 19.2064C212.379 20.1947 212.375 21.1871 212.375 22.1755C212.375 22.8653 212.375 23.5552 212.383 24.245C212.383 24.5395 212.354 24.9187 212.052 25.2132C211.728 25.5359 211.296 25.5359 211.147 25.5359C209.487 25.5157 207.827 25.5198 206.176 25.5359C206.03 25.5359 205.582 25.544 205.251 25.2051C204.948 24.9025 204.92 24.5233 204.92 24.2571C204.928 23.4946 204.928 22.7322 204.928 21.9697C204.928 21.1468 204.928 20.3359 204.936 19.521C199.387 19.5291 193.842 19.5291 188.301 19.521C188.318 25.0195 188.318 30.5947 188.301 36.0932C193.842 36.077 199.387 36.077 204.936 36.0932C204.928 35.3509 204.928 34.6207 204.928 33.8784C204.928 33.0555 204.928 32.2366 204.92 31.4136C204.912 31.1352 204.94 30.7157 205.259 30.4091C205.598 30.0662 206.075 30.0783 206.228 30.0783C207.69 30.0944 209.273 30.0944 211.086 30.0783C211.329 30.0783 211.749 30.1065 212.056 30.4091L212.06 30.4131Z" fill="#E5E5E5"/>
<path d="M31.5848 39.7642V42.5074C31.5848 42.5961 31.5767 42.6849 31.5646 42.7777L31.4919 43.5563H24.1419V19.5332H7.51962V42.104C7.51962 43.2497 7.18846 43.5764 6.04961 43.5764H1.51038C0.323077 43.5764 0 43.2537 0 42.0798V13.5909C0 12.3726 0.331154 12.0418 1.51846 12.0418H5.56904C11.7963 12.0418 18.0075 12.0418 24.2227 12.0338H24.2308C24.8769 12.0338 25.3777 12.2395 25.83 12.7074C26.674 13.5667 27.5262 14.4179 28.3702 15.2651C29.2506 16.1526 30.139 17.032 31.0113 17.9276C31.3425 18.2705 31.5606 18.7707 31.5606 19.2104C31.5767 26.0603 31.5767 32.9103 31.5767 39.7602L31.5848 39.7642Z" fill="#E5E5E5"/>
<path d="M103.918 36.2707C103.918 36.8556 103.728 37.3195 103.316 37.731C102.553 38.4854 101.797 39.2398 101.034 40.0062C100.037 41.0107 99.0391 42.0152 98.0255 43.0076C97.6822 43.3465 97.1532 43.5562 96.6888 43.5643C93.8699 43.5724 90.9784 43.5805 88.0424 43.5805C85.2599 43.5805 82.433 43.5724 79.5778 43.5643C79.1093 43.5643 78.6005 43.3586 78.2774 43.0439C76.3551 41.1519 74.5984 39.3931 72.9103 37.6665C72.5711 37.3155 72.3449 36.7588 72.3449 36.2747C72.3288 32.2123 72.3288 28.15 72.3247 24.0877C72.3247 20.5175 72.3247 16.9513 72.3167 13.3811C72.3167 13.0947 72.353 12.6752 72.668 12.3686C73.0193 12.0257 73.504 12.0297 73.718 12.0297C75.1193 12.0579 76.759 12.0822 78.3784 12.0297C78.6853 12.0136 79.1336 12.0458 79.4647 12.3686C79.8403 12.7276 79.8403 13.2359 79.8403 13.5143C79.8241 18.8473 79.8241 24.1845 79.8241 29.5176L79.8322 34.3222C79.8322 34.9152 79.8403 35.5082 79.8241 36.1053C85.3649 36.0891 90.9178 36.0891 96.4586 36.1053C96.4424 34.4714 96.4505 32.8255 96.4505 31.1836V12.07H103.849L103.893 12.9576C103.901 13.1028 103.91 13.2359 103.91 13.3771V18.8716C103.91 24.6726 103.91 30.4736 103.918 36.2747V36.2707Z" fill="#E5E5E5"/>
<path d="M284.699 28.3436V25.3019C284.699 25.1849 284.691 25.076 284.683 24.951L284.639 24.0917H279.575L284.162 19.4404L284.384 19.4202L284.546 18.9805C284.647 18.7102 284.566 18.452 284.437 18.2624L284.017 17.508L283.864 17.6613L283.827 17.625C282.111 15.9025 280.39 14.1718 278.658 12.4533C278.355 12.1588 277.911 12.0499 277.592 12.0499C271.813 12.0337 266.038 12.0337 260.267 12.0499C259.855 12.0499 259.399 12.2395 259.116 12.5259C257.141 14.4784 255.348 16.2655 253.64 18.0123C253.337 18.3189 253.135 18.803 253.127 19.2508C253.111 20.1584 253.111 21.0621 253.111 21.9698C253.119 22.7161 253.119 23.4745 253.103 24.2289C253.103 24.4991 253.131 24.8945 253.442 25.197C253.781 25.5399 254.241 25.5359 254.395 25.5359C256.164 25.5157 257.763 25.5157 259.298 25.5359C259.459 25.5359 259.928 25.544 260.283 25.197C260.59 24.8824 260.626 24.4709 260.622 24.1925C260.614 23.4019 260.614 22.6071 260.614 21.8165C260.614 21.0258 260.622 20.2835 260.614 19.521C266.155 19.5291 271.708 19.5291 277.249 19.521C277.232 20.5861 277.24 21.647 277.24 22.712V24.0675H275.904C272.742 24.0675 269.584 24.0675 266.417 24.0957C265.933 24.0957 265.375 24.3216 265.028 24.6605C263.639 26.0079 262.274 27.3795 260.909 28.7511L259.851 29.8161C259.762 29.9048 259.681 29.9976 259.588 30.1025L258.627 31.1877L258.664 31.1958L252.998 36.9161L253.571 37.5253C253.668 37.6423 253.797 37.7875 253.947 37.9287L255.518 39.506C256.669 40.6638 257.824 41.8176 258.966 42.9753C259.378 43.3949 259.839 43.5845 260.428 43.5845H260.436C266.098 43.5684 271.764 43.5684 277.426 43.5845C278.008 43.5845 278.468 43.3868 278.88 42.9592C280.621 41.2084 282.361 39.4616 284.114 37.7229C284.526 37.3195 284.716 36.8556 284.708 36.2626C284.699 33.6243 284.699 30.9819 284.699 28.3436ZM260.606 36.0972C260.626 34.9596 260.622 33.822 260.614 32.6884V31.5508L261.438 31.5427C264.814 31.5427 268.186 31.5427 271.562 31.5225C272.063 31.5225 272.54 31.228 272.794 30.9779C273.537 30.2598 274.264 29.5256 274.995 28.7834C275.464 28.3154 275.928 27.8434 276.396 27.3835C276.675 27.1052 276.954 26.8349 277.24 26.5606V28.0492C277.24 30.7318 277.24 33.4105 277.257 36.0932C271.708 36.077 266.155 36.077 260.606 36.0932V36.0972Z" fill="#E5E5E5"/>
<path d="M140.066 12.1225V13.8531C140.066 15.4062 140.066 16.9352 140.05 18.4601C140.042 19.0894 139.367 19.4121 139.287 19.4484C139.125 19.521 138.955 19.5452 138.822 19.5452C138.741 19.5452 138.677 19.5372 138.616 19.5291H115.981C115.973 27.1213 115.973 34.7014 115.981 42.2936C115.981 42.5638 115.944 42.9592 115.641 43.2617C115.302 43.5925 114.85 43.5845 114.688 43.5845C112.903 43.5643 111.32 43.5643 109.842 43.5845H109.782C109.495 43.5845 109.107 43.5401 108.804 43.2456C108.489 42.939 108.453 42.5114 108.453 42.2209C108.469 38.4813 108.469 34.7498 108.469 31.0142V24.5596C108.469 20.8563 108.469 17.153 108.453 13.4578C108.453 13.1189 108.489 12.6953 108.82 12.3726C109.143 12.0579 109.568 12.0297 109.899 12.0297C111.272 12.0579 112.754 12.0579 114.684 12.0378C114.846 12.0378 115.302 12.0216 115.637 12.3605C115.944 12.655 115.977 13.0503 115.977 13.3206V17.032C117.467 15.5353 118.949 14.0467 120.463 12.5662C120.77 12.2596 121.243 12.062 121.655 12.0539C126.67 12.0458 131.674 12.0458 136.69 12.0458H138.923C139.012 12.0458 139.101 12.0539 139.218 12.062L140.062 12.1265L140.066 12.1225Z" fill="#E5E5E5"/>
<path d="M248.543 12.1427V18.0446C248.543 18.5287 248.543 18.9159 248.22 19.2266C247.913 19.5291 247.546 19.5291 247.033 19.5291H226.424C225.798 19.5291 225.185 19.5291 224.559 19.521H224.47C224.462 27.1132 224.462 34.7014 224.47 42.2976C224.47 42.5598 224.433 42.9592 224.131 43.2577C223.791 43.5885 223.331 43.5724 223.178 43.5805C221.3 43.5603 219.757 43.5603 218.331 43.5805H218.271C217.984 43.5805 217.596 43.5361 217.293 43.2416C216.987 42.935 216.942 42.5316 216.942 42.2089C216.958 38.445 216.958 34.6853 216.958 30.9214V13.5062C216.958 12.3686 217.289 12.0378 218.432 12.0378H219.805C220.928 12.0378 222.051 12.0458 223.173 12.0297C223.327 12.0216 223.791 12.0136 224.127 12.3524C224.429 12.6469 224.466 13.0423 224.466 13.3126V17.0159L224.627 16.8545C226.057 15.4184 227.491 13.9863 228.936 12.5662C229.251 12.2516 229.724 12.0539 230.128 12.0539C235.341 12.0378 240.551 12.0378 245.773 12.0378H247.445C247.533 12.0378 247.614 12.0458 247.731 12.058L248.539 12.1386L248.543 12.1427Z" fill="#E5E5E5"/>
<path d="M332.906 19.4686V36.0932H356.992V43.5724H351.544C345.28 43.5724 339.021 43.5724 332.757 43.5805H332.749C332.147 43.5805 331.671 43.3828 331.243 42.9511C330.508 42.1968 329.76 41.4464 329.009 40.7001C328.012 39.6956 327.014 38.6911 326.029 37.6786C325.69 37.3357 325.472 36.791 325.472 36.2908C325.443 32.6319 325.443 28.9407 325.472 25.3181C325.472 24.834 325.706 24.2773 326.045 23.9303C327.434 22.5305 328.836 21.1428 330.29 19.7147L330.56 19.4525H325.5V0.125057L326.263 0.036307C326.38 0.0201705 326.485 0.00806821 326.594 0.00806821H328.46C329.53 0.00806821 330.613 0.00806821 331.683 0C331.844 0 332.285 0 332.6 0.31466C332.805 0.5204 332.906 0.806821 332.906 1.15779C332.898 5.3815 332.898 9.59714 332.89 13.8168V17.0602C334.38 15.5717 335.879 14.075 337.377 12.5945C337.64 12.3363 338.088 12.0579 338.552 12.0579C343.992 12.0378 349.424 12.0418 354.864 12.0418H355.986C356.059 12.0418 356.14 12.0499 356.245 12.062L356.992 12.1507V19.4686H332.898H332.906Z" fill="#E5E5E5"/>
<path d="M308.87 7.45906V12.0216H320.823V19.5089H318.194C317.019 19.5009 315.844 19.5009 314.677 19.517C314.059 19.5251 313.619 19.3355 313.203 18.9159C311.894 17.5887 310.574 16.2696 309.253 14.9544L308.841 14.543V43.5401H301.362V14.4905C299.872 15.9872 298.39 17.4838 296.9 18.9724C296.673 19.1943 296.326 19.4847 295.886 19.4928C294.755 19.5089 293.632 19.5089 292.494 19.5089H289.327V12.0579H306.228L300.958 6.8015L302.63 5.13138C304.254 3.51774 305.825 1.95654 307.395 0.399375C307.755 0.0484072 308.268 0.0161344 308.417 0.0121003C312.197 0.00403206 315.973 0.0121003 319.753 0.0121003C319.862 0.0121003 319.967 0.0282367 320.092 0.040339L320.84 0.137158V7.4631H308.874L308.87 7.45906Z" fill="#E5E5E5"/>
<path d="M66.9173 30.1711C66.8446 30.1509 66.6831 30.0904 66.4852 30.0904H64.5023C63.4886 30.0904 62.475 30.0904 61.4613 30.0823C61.1019 30.0662 60.8233 30.1832 60.6092 30.397C60.2942 30.7197 60.2942 31.1514 60.2942 31.3208C60.3023 32.3898 60.3023 33.4629 60.3023 34.54V36.0891H56.0296C51.9104 36.0891 47.7871 36.0891 43.6679 36.0972C43.6881 34.9475 43.684 33.8018 43.6759 32.6521V31.6556C43.6759 31.6113 43.6759 31.5588 43.6679 31.5144L47.1854 31.5225C49.6448 31.5225 52.1123 31.5306 54.5798 31.5225C55.0119 31.5225 55.4965 31.3168 55.8196 31.0021C57.33 29.5135 58.8242 28.0088 60.3184 26.5121L61.1059 25.7215C61.1867 25.6408 61.2513 25.552 61.3402 25.4512L61.5461 25.189L67.2363 19.4161L67.4504 19.3879L67.5958 18.9563C67.7129 18.6174 67.5594 18.3471 67.4504 18.2019L67.0263 17.5484L66.9173 17.6573L66.5296 17.27C64.9384 15.6644 63.3433 14.0669 61.7359 12.4815C61.3402 12.0862 60.7384 12.0579 60.5608 12.0579C56.8373 12.0418 53.1219 12.0418 49.4025 12.066C48.9704 12.066 48.4777 12.2637 48.1627 12.5783C46.7169 14.0024 45.2792 15.4385 43.8375 16.8747L43.0217 17.6896C42.9248 17.7904 42.84 17.8953 42.7188 18.0284L42.3433 18.448C42.2423 18.5125 42.1454 18.573 42.0484 18.6698L41.3498 19.3597C39.7708 20.9289 38.1917 22.4901 36.6369 24.0675C36.225 24.487 36.1886 25.1002 36.1806 25.2858C36.1644 26.4436 36.1644 27.6094 36.1725 28.7672V31.5467H37.1861L39.3063 31.5386C39.9686 31.5306 40.635 31.5306 41.2973 31.5306L36.5117 36.3715L36.124 36.8193L36.439 37.3195C36.4673 37.372 36.54 37.4809 36.645 37.5817L37.38 38.324C38.9873 39.9376 40.5946 41.5513 42.21 43.1488C42.5331 43.4635 42.9975 43.5724 43.3246 43.5724C45.1823 43.5804 47.0319 43.5885 48.8896 43.5885C50.7473 43.5885 52.6979 43.5804 54.6 43.5724C55.0119 43.5724 55.4683 43.3908 55.7509 43.1044C57.4108 41.4706 59.0544 39.8126 60.69 38.1626L61.114 37.7391C61.2231 37.6301 61.2917 37.5131 61.3644 37.4002L61.4452 37.2751L61.4533 37.259L67.2363 31.4015L68.2217 30.4615L66.9133 30.1832L66.9173 30.1711ZM43.68 19.513C43.7527 19.521 43.8213 19.521 43.894 19.521L46.6321 19.5291C51.1915 19.5291 55.7509 19.5291 60.3104 19.513C60.2902 20.6506 60.2902 21.7882 60.2942 22.9218L60.3023 24.0715H58.5981C55.5652 24.0634 52.5283 24.0634 49.4873 24.0917C48.9946 24.0917 48.4171 24.3337 48.0577 24.6847C46.8179 25.8869 45.5983 27.1132 44.3706 28.3356L43.68 29.0415V19.5089V19.513Z" fill="#E5E5E5"/>
<path d="M163.8 23.297H156.563V31.8775H163.8V23.297Z" fill="#E5E5E5"/>
<path d="M176.364 29.804C176.069 28.3315 176.069 26.8187 176.364 25.3544L176.392 25.2091C176.965 22.3207 175.738 19.3799 173.294 17.742L173.169 17.6533C171.921 16.8263 170.851 15.7532 170.019 14.5067L169.93 14.3816C168.295 11.941 165.351 10.7146 162.455 11.2874L162.31 11.3157C160.84 11.6102 159.329 11.6102 157.855 11.3157L157.71 11.2874C154.826 10.7146 151.874 11.941 150.235 14.3816L150.154 14.5067C149.318 15.7532 148.244 16.8222 147.004 17.6533L146.879 17.742C144.427 19.3758 143.208 22.3167 143.781 25.2091L143.81 25.3544C144.104 26.8228 144.104 28.3315 143.81 29.804L143.781 29.9492C143.208 32.8296 144.427 35.7785 146.879 37.4163L147.004 37.497C148.244 38.3321 149.318 39.4052 150.154 40.6436L150.235 40.7687C151.87 43.2174 154.822 44.4357 157.71 43.8629L157.855 43.8346C159.329 43.5401 160.844 43.5401 162.31 43.8346L162.455 43.8629C165.347 44.4357 168.291 43.2174 169.93 40.7687L170.019 40.6436C170.847 39.4052 171.921 38.3321 173.169 37.497L173.294 37.4163C175.738 35.7825 176.965 32.8336 176.392 29.9492L176.364 29.804ZM167.269 35.3832H153.058V19.8962H167.269V35.3832Z" fill="#E5E5E5"/>
<path d="M163.8 23.297H156.563V31.8775H163.8V23.297Z" fill="#E5E5E5"/>
<path d="M163.8 23.297H156.563V31.8775H163.8V23.297Z" fill="#FF3600"/>
</g>
<defs>
<clipPath id="clip0_602_69">
<rect width="357" height="44" fill="white"/>
</clipPath>
</defs>
</svg>
