<svg width="306" height="306" viewBox="0 0 306 306" fill="none" xmlns="http://www.w3.org/2000/svg">
<path d="M304.44 173.756C301.697 160.042 301.697 145.953 304.44 132.314L304.703 130.961C310.038 104.059 298.616 76.6681 275.885 61.4135L274.72 60.5869C263.11 52.8845 253.153 42.8901 245.413 31.2801L244.586 30.1153C229.369 7.38372 201.979 -4.03845 175.039 1.2969L173.686 1.55991C160.01 4.30273 145.958 4.30273 132.244 1.55991L130.891 1.2969C104.064 -4.03845 76.5981 7.38372 61.3435 30.1153L60.592 31.2801C52.8144 42.8901 42.82 52.8469 31.2852 60.5869L30.1204 61.4135C7.31367 76.6306 -4.03339 104.021 1.30196 130.961L1.565 132.314C4.30782 145.99 4.30782 160.042 1.565 173.756L1.30196 175.109C-4.03339 201.936 7.31367 229.402 30.1204 244.657L31.2852 245.408C42.82 253.186 52.8144 263.18 60.592 274.715L61.3435 275.88C76.5605 298.686 104.026 310.033 130.891 304.698L132.244 304.435C145.958 301.692 160.047 301.692 173.686 304.435L175.039 304.698C201.941 310.033 229.332 298.686 244.586 275.88L245.413 274.715C253.116 263.18 263.11 253.186 274.72 245.408L275.885 244.657C298.616 229.44 310.038 201.974 304.703 175.109L304.44 173.756ZM219.826 225.72H87.6069V81.4775H219.826V225.72Z" fill="#E5E5E5"/>
<path d="M188 114H121V195H188V114Z" fill="#FF3600"/>
</svg>
