<svg width="38" height="38" viewBox="0 0 38 38" fill="none" xmlns="http://www.w3.org/2000/svg">
<circle cx="19" cy="19" r="19" fill="black"/>
<path d="M27.9618 19.79C27.8045 21.4922 27.1657 23.1144 26.1201 24.4668C25.0744 25.8192 23.6653 26.8458 22.0575 27.4265C20.4497 28.0073 18.7098 28.1181 17.0413 27.7461C15.3728 27.3741 13.8448 26.5345 12.636 25.3258C11.4273 24.117 10.5878 22.589 10.2157 20.9205C9.84369 19.252 9.95453 17.5121 10.5353 15.9043C11.116 14.2965 12.1426 12.8874 13.495 11.8418C14.8474 10.7961 16.4696 10.1573 18.1718 10C17.1752 11.3483 16.6957 13.0094 16.8203 14.6814C16.945 16.3534 17.6657 17.9251 18.8512 19.1106C20.0368 20.2961 21.6084 21.0168 23.2804 21.1415C24.9524 21.2662 26.6135 20.7866 27.9618 19.79Z" fill="white"/>
</svg>
